HIERARCHY
ROOT Hips
{
    OFFSET 0.000000 0.000000 0.000000
    CHANNELS 6 Xposition Yposition Zposition Zrotation Xrotation Yrotation
    JOINT Spine
    {
        OFFSET -0.000000 14.517291 0.000000
        CHANNELS 3 Zrotation Xrotation Yrotation
        JOINT Spine1
        {
            OFFSET -0.000000 37.558300 0.000000
            CHANNELS 3 Zrotation Xrotation Yrotation
            JOINT Neck
            {
                OFFSET -0.000000 37.404057 3.400369
                CHANNELS 3 Zrotation Xrotation Yrotation
                JOINT Head
                {
                    OFFSET -0.000000 24.785618 -3.540803
                    CHANNELS 3 Zrotation Xrotation Yrotation
                    End Site
                    {
                        OFFSET -0.000000 35.408028 0.000000
                    }
                }
            }
            JOINT LeftShoulder
            {
                OFFSET 6.992933 33.973492 -0.192664
                CHANNELS 3 Zrotation Xrotation Yrotation
                JOINT LeftArm
                {
                    OFFSET 21.527611 0.000000 0.000000
                    CHANNELS 3 Zrotation Xrotation Yrotation
                    JOINT LeftForeArm
                    {
                        OFFSET 56.353916 0.000000 0.000000
                        CHANNELS 3 Zrotation Xrotation Yrotation
                        JOINT LeftHand
                        {
                            OFFSET 47.774071 0.000000 0.000000
                            CHANNELS 3 Zrotation Xrotation Yrotation
                            End Site
                            {
                                OFFSET 26.556021 0.000000 0.000000
                            }
                        }
                    }
                }
            }
            JOINT RightShoulder
            {
                OFFSET -7.065357 33.973492 -0.192664
                CHANNELS 3 Zrotation Xrotation Yrotation
                JOINT RightArm
                {
                    OFFSET -21.527611 0.000000 0.000000
                    CHANNELS 3 Zrotation Xrotation Yrotation
                    JOINT RightForeArm
                    {
                        OFFSET -56.353916 0.000000 0.000000
                        CHANNELS 3 Zrotation Xrotation Yrotation
                        JOINT RightHand
                        {
                            OFFSET -47.774071 0.000000 0.000000
                            CHANNELS 3 Zrotation Xrotation Yrotation
                            End Site
                            {
                                OFFSET -26.556021 0.000000 0.000000
                            }
                        }
                    }
                }
            }
        }
    }
    JOINT LeftUpLeg
    {
        OFFSET 17.704014 0.000000 0.000000
        CHANNELS 3 Zrotation Xrotation Yrotation
        JOINT LeftLeg
        {
            OFFSET -0.000000 -81.181816 0.000000
            CHANNELS 3 Zrotation Xrotation Yrotation
            JOINT LeftFoot
            {
                OFFSET -0.000000 -62.821102 0.000000
                CHANNELS 3 Zrotation Xrotation Yrotation
                JOINT LeftToeBase
                {
                    OFFSET -0.000000 -11.507608 26.556021
                    CHANNELS 3 Zrotation Xrotation Yrotation
                    End Site
                    {
                        OFFSET -0.000000 0.000000 7.081605
                    }
                }
            }
        }
    }
    JOINT RightUpLeg
    {
        OFFSET -17.704014 0.000000 0.000000
        CHANNELS 3 Zrotation Xrotation Yrotation
        JOINT RightLeg
        {
            OFFSET -0.000000 -81.181816 0.000000
            CHANNELS 3 Zrotation Xrotation Yrotation
            JOINT RightFoot
            {
                OFFSET -0.000000 -62.821102 0.000000
                CHANNELS 3 Zrotation Xrotation Yrotation
                JOINT RightToeBase
                {
                    OFFSET -0.000000 -11.507608 26.556021
                    CHANNELS 3 Zrotation Xrotation Yrotation
                    End Site
                    {
                        OFFSET -0.000000 0.000000 7.081605
                    }
                }
            }
        }
    }
}
MOTION
Frames:    13
Frame Time:    0.008333
-21.070787    164.438858    -78.593361    -9.473033    -21.480623    42.194324    3.368338    4.953727    -5.798829    3.615757    8.068203    -2.141557    20.766541    0.053095    -1.968357    1.695971    -2.753838    -4.877928    13.278602    6.974001    -21.322132    -36.887241    21.234200    -36.175480    -1.302229    -34.386303    -110.798035    -4.122782    -35.565395    -12.443727    7.490539    2.698134    -12.122928    28.955667    10.515762    5.392257    -5.997490    -6.557271    27.414551    -4.624772    -6.074012    23.869461    24.603632    -0.387977    6.212777    -4.944075    34.925728    -16.303888    8.098715    -20.920652    35.268269    0.000000    0.000000    0.000000    -88.460686    -45.073151    -54.794300    8.138223    15.584096    -9.432520    21.215225    14.086295    -36.578884    0.000000    0.000000    0.000000    
-21.085634    164.433640    -78.627602    -9.457222    -21.481258    42.223526    3.365822    4.954226    -5.808635    3.624697    8.084862    -2.146021    20.729612    0.039798    -1.971076    1.708604    -2.771772    -4.875244    13.253090    6.960370    -21.334787    -36.869259    21.226955    -36.217274    -1.283904    -34.428093    -110.771423    -4.138793    -35.582336    -12.454397    7.479428    2.722617    -12.101193    28.834452    10.067373    5.569717    -5.988009    -6.385925    29.084909    -5.008235    -5.821328    22.285839    24.587990    -0.399148    6.255506    -4.904172    34.921288    -16.363276    8.101982    -20.916739    35.258549    0.000000    0.000000    0.000000    -88.429176    -45.052116    -54.801590    8.089019    15.561455    -9.450007    21.216362    14.084559    -36.538124    0.000000    0.000000    0.000000    
-21.093826    164.426773    -78.655769    -9.425274    -21.492424    42.262928    3.354999    4.949908    -5.812324    3.630152    8.131741    -2.149278    20.690664    0.032984    -1.983912    1.752856    -2.809742    -4.875982    13.251903    6.958595    -21.354433    -36.841255    21.201366    -36.291416    -1.277004    -34.463409    -110.739052    -4.096745    -35.611946    -12.450042    7.491871    2.741879    -12.100520    28.703768    9.651589    5.770131    -6.009231    -6.250102    30.762062    -5.419777    -5.587987    20.670578    24.568764    -0.398974    6.280082    -4.868483    34.929344    -16.427000    8.112857    -20.910666    35.252731    0.000000    0.000000    0.000000    -88.385948    -45.012939    -54.805962    8.054037    15.537506    -9.374366    21.222483    14.030290    -36.553074    0.000000    0.000000    0.000000    
-21.116117    164.425827    -78.697601    -9.411915    -21.503643    42.285252    3.359697    4.970126    -5.810750    3.632522    8.136159    -2.148837    20.683075    0.019111    -1.990692    1.750298    -2.820430    -4.884683    13.246525    6.949510    -21.359858    -36.819336    21.214849    -36.372284    -1.329056    -34.463039    -110.735817    -3.928598    -35.689499    -12.387929    7.503007    2.752506    -12.087022    28.571741    9.193336    5.920727    -6.098305    -5.554948    31.797079    -5.532122    -4.991959    23.932842    24.565422    -0.422916    6.296655    -4.855726    34.952511    -16.454487    8.126102    -20.887537    35.245960    0.000000    0.000000    0.000000    -88.288742    -44.993427    -54.427864    8.071535    15.404157    -9.723147    21.223406    14.029211    -36.539902    0.000000    0.000000    0.000000    
-21.114283    164.424683    -78.722710    -9.389409    -21.528271    42.344444    3.370304    4.969186    -5.831963    3.644599    8.169694    -2.157653    20.637955    0.004431    -2.006656    1.793188    -2.823280    -4.889943    13.229420    6.931513    -21.373276    -36.812534    21.218218    -36.439125    -1.321396    -34.486897    -110.707375    -3.941775    -35.701675    -12.400496    7.507985    2.766354    -12.083063    28.455706    8.791276    6.099805    -6.114884    -5.480974    33.408783    -5.663794    -4.843208    23.841364    24.563238    -0.442083    6.259194    -4.843449    34.984386    -16.498608    8.124434    -20.879227    35.261158    0.000000    0.000000    0.000000    -88.211082    -44.929733    -54.382927    8.032054    15.373540    -9.681333    21.225784    13.949880    -36.552284    0.000000    0.000000    0.000000    
-21.125360    164.409180    -78.765129    -9.366185    -21.528469    42.382431    3.369227    4.980662    -5.833495    3.650311    8.175087    -2.158673    20.616688    -0.035235    -2.007934    1.806417    -2.798289    -4.893557    13.215547    6.918750    -21.380575    -36.801235    21.242682    -36.520782    -1.289403    -34.538395    -110.667786    -3.943157    -35.713287    -12.408013    7.513384    2.776771    -12.081301    28.349554    8.400884    6.254193    -6.038014    -5.704154    35.349827    -5.546094    -4.910674    22.999134    24.545773    -0.480150    6.205074    -4.871384    35.027016    -16.519934    8.157197    -20.878464    35.324345    0.000000    0.000000    0.000000    -88.177681    -44.894794    -54.331570    8.005589    15.328233    -9.696103    21.228510    13.919842    -36.563110    0.000000    0.000000    0.000000    
-21.132854    164.392761    -78.802513    -9.336964    -21.530424    42.420456    3.367791    4.974794    -5.836016    3.633177    8.205024    -2.159302    20.648033    -0.049226    -2.006441    1.777982    -2.799461    -4.904133    13.230226    6.904425    -21.392706    -36.788528    21.275354    -36.608120    -1.220037    -34.648670    -110.620712    -4.075342    -35.725979    -12.458220    7.539718    2.789583    -12.054614    28.231939    7.950924    6.432759    -6.037750    -5.520264    36.910343    -5.632028    -4.660077    23.130590    24.523796    -0.500205    6.138977    -4.904153    35.046265    -16.503799    8.185822    -20.866037    35.353413    0.000000    0.000000    0.000000    -88.174408    -44.869701    -54.575611    7.915755    15.365711    -9.410713    21.221926    13.892654    -36.576157    0.000000    0.000000    0.000000    
-21.142122    164.380020    -78.840866    -9.303550    -21.541056    42.440525    3.350798    4.996677    -5.810964    3.653380    8.208374    -2.152562    20.651417    -0.055881    -2.014009    1.763302    -2.800570    -4.916189    13.224997    6.900079    -21.422882    -36.769512    21.309301    -36.691372    -1.198998    -34.697033    -110.605522    -4.029044    -35.753555    -12.431271    7.559472    2.793493    -12.046287    28.120947    7.577322    6.602663    -6.136177    -5.383070    38.476646    -5.868774    -4.439024    23.022539    24.504589    -0.501503    6.101692    -4.927063    35.071312    -16.524048    8.214236    -20.864544    35.404644    0.000000    0.000000    0.000000    -88.114189    -44.856022    -54.247944    7.948454    15.273925    -9.577472    21.257469    13.825997    -36.662113    0.000000    0.000000    0.000000    
-21.147018    164.363693    -78.880402    -9.266156    -21.545805    42.457073    3.344895    5.005482    -5.787882    3.644755    8.223003    -2.144681    20.634029    -0.084261    -2.021907    1.798927    -2.763426    -4.921648    13.229367    6.894862    -21.445263    -36.753529    21.340441    -36.769222    -1.186411    -34.729324    -110.602608    -3.947424    -35.779221    -12.382216    7.580266    2.822709    -12.032842    28.018766    7.180107    6.787405    -6.169442    -5.251810    40.043182    -5.952018    -4.216687    22.999292    24.471678    -0.492195    6.073296    -4.942615    35.074463    -16.514816    8.237341    -20.866173    35.432228    0.000000    0.000000    0.000000    -88.066650    -44.828907    -54.183220    7.942836    15.184656    -9.751976    21.208052    13.913048    -36.490955    0.000000    0.000000    0.000000    
-21.151361    164.342026    -78.917870    -9.225745    -21.545835    42.463318    3.322201    5.007645    -5.761131    3.661280    8.234886    -2.137614    20.608805    -0.086118    -2.029146    1.816146    -2.734071    -4.923251    13.204524    6.897569    -21.468258    -36.728855    21.369186    -36.832012    -1.149673    -34.766560    -110.584503    -3.949562    -35.772545    -12.371384    7.589557    2.855943    -11.999424    27.921463    6.806918    6.959134    -6.232512    -5.163576    41.663551    -6.079132    -4.023948    22.872147    24.432421    -0.475526    6.070889    -4.941684    35.076515    -16.513371    8.261345    -20.879047    35.437645    0.000000    0.000000    0.000000    -88.051804    -44.835052    -54.194195    7.902356    15.158245    -9.710279    21.221857    13.929965    -36.480412    0.000000    0.000000    0.000000    
-21.158937    164.317368    -78.958527    -9.188217    -21.548916    42.456394    3.297212    5.031436    -5.720955    3.689217    8.221619    -2.125952    20.585972    -0.097017    -2.034908    1.834400    -2.691185    -4.925412    13.211922    6.983701    -21.417158    -36.645515    21.417166    -37.054802    -1.102267    -34.861183    -110.519684    -4.017437    -35.800892    -12.436867    7.597815    2.872662    -11.965418    27.754206    6.321110    7.121840    -6.050961    -4.923872    43.317532    -6.060908    -3.738834    22.689987    24.395155    -0.467268    6.080774    -4.933241    35.106644    -16.489496    8.262642    -20.905941    35.425232    0.000000    0.000000    0.000000    -88.032974    -44.860714    -54.195759    7.858884    15.130778    -9.708867    21.232443    13.977240    -36.451649    0.000000    0.000000    0.000000    
-21.163837    164.289124    -79.001945    -9.150066    -21.547550    42.452614    3.282557    5.049761    -5.692260    3.698808    8.199575    -2.116398    20.550177    -0.081904    -2.044810    1.870682    -2.653240    -4.922011    13.188586    7.004395    -21.445040    -36.635838    21.442387    -37.100220    -1.085315    -34.892784    -110.529716    -4.059777    -35.808235    -12.460321    7.615776    2.935261    -11.934889    27.699183    5.996637    7.366257    -6.182604    -4.953383    44.841557    -6.158616    -3.628258    22.481045    24.352577    -0.467004    6.084731    -4.921644    35.142643    -16.493290    8.288261    -20.917452    35.434021    0.000000    0.000000    0.000000    -88.027641    -44.878548    -54.222443    7.816497    15.108588    -9.681161    21.239136    14.024469    -36.416340    0.000000    0.000000    0.000000    
-21.173351    164.262558    -79.044556    -9.124714    -21.548655    42.438805    3.271067    5.052396    -5.661530    3.715878    8.191499    -2.107261    20.554604    -0.055851    -2.038552    1.855419    -2.632191    -4.914204    13.160739    7.022620    -21.471752    -36.615990    21.469507    -37.140465    -1.067542    -34.932735    -110.535828    -4.150102    -35.818195    -12.490474    7.627628    2.965574    -11.869635    27.607098    5.675366    7.522724    -6.212573    -4.966329    46.468567    -6.429229    -3.561821    22.189249    24.329578    -0.473048    6.080594    -4.938942    35.186081    -16.489210    8.307625    -20.937178    35.456116    0.000000    0.000000    0.000000    -88.030975    -44.909073    -54.384186    7.761402    15.120145    -9.527280    21.202852    14.084714    -36.418530    0.000000    0.000000    0.000000    
